<svg xmlns="http://www.w3.org/2000/svg" viewBox="0 0 32 32">
  <defs>
    <linearGradient id="g" x1="0%" y1="0%" x2="100%" y2="100%">
      <stop offset="0%" stop-color="#5b4acf"/>
      <stop offset="50%" stop-color="#7c6af7"/>
      <stop offset="100%" stop-color="#9061e0"/>
    </linearGradient>
  </defs>
  <circle cx="16" cy="16" r="14" fill="none" stroke="url(#g)" stroke-width="3"/>
  <path d="M16 6 C22 6 26 10 26 16 C26 19 24 21 22 21 C20 21 19 19.5 19 18 C19 16.5 20 15.5 20 14 C20 11.5 18.5 10 16 10 C13.5 10 11.5 11.5 11.5 14 C11.5 18 16 18 16 22 C16 24.5 14 26 12 26" fill="none" stroke="url(#g)" stroke-width="2.5" stroke-linecap="round"/>
  <circle cx="12" cy="26" r="2" fill="url(#g)"/>
</svg>
